<svg width="23" height="22" viewBox="0 0 23 22" fill="none" xmlns="http://www.w3.org/2000/svg">
<path d="M2.15896 0.208435C1.81776 0.208435 1.46096 0.32311 1.20056 0.583109C0.679892 1.10444 0.679892 1.97909 1.20056 2.50043L9.57562 10.8751L1.20056 19.2498C0.679892 19.7711 0.679892 20.6458 1.20056 21.1671C1.72136 21.6871 2.59656 21.6871 3.11736 21.1671L11.4923 12.7924L19.8672 21.1671C20.388 21.6871 21.2632 21.6871 21.784 21.1671C22.3047 20.6458 22.3047 19.7711 21.784 19.2498L13.409 10.8751L21.784 2.50043C22.3047 1.97909 22.3047 1.10444 21.784 0.583109C21.5236 0.32311 21.1667 0.208435 20.8256 0.208435C20.4844 0.208435 20.1278 0.32311 19.8672 0.583109L11.4923 8.95776L3.11736 0.583109C2.85696 0.32311 2.50016 0.208435 2.15896 0.208435Z" fill="#BF360C"/>
</svg>
