<svg width="22" height="22" viewBox="0 0 22 22" fill="none" xmlns="http://www.w3.org/2000/svg">
<path d="M11.0001 21.025C10.7334 21.025 10.4793 20.975 10.2376 20.875C9.99593 20.775 9.7751 20.6333 9.5751 20.45L1.5501 12.425C1.36676 12.225 1.2251 12.0041 1.1251 11.7625C1.0251 11.5208 0.975098 11.2666 0.975098 11C0.975098 10.7333 1.0251 10.475 1.1251 10.225C1.2251 9.97498 1.36676 9.75831 1.5501 9.57498L9.5751 1.54998C9.7751 1.34998 9.99593 1.20414 10.2376 1.11248C10.4793 1.02081 10.7334 0.974976 11.0001 0.974976C11.2668 0.974976 11.5251 1.02081 11.7751 1.11248C12.0251 1.20414 12.2418 1.34998 12.4251 1.54998L20.4501 9.57498C20.6501 9.75831 20.7959 9.97498 20.8876 10.225C20.9793 10.475 21.0251 10.7333 21.0251 11C21.0251 11.2666 20.9793 11.5208 20.8876 11.7625C20.7959 12.0041 20.6501 12.225 20.4501 12.425L12.4251 20.45C12.2418 20.6333 12.0251 20.775 11.7751 20.875C11.5251 20.975 11.2668 21.025 11.0001 21.025ZM11.0001 19.025L19.0251 11L11.0001 2.97498L2.9751 11L11.0001 19.025ZM10.0001 12H12.0001V5.99998H10.0001V12ZM11.0001 15C11.2834 15 11.5209 14.9041 11.7126 14.7125C11.9043 14.5208 12.0001 14.2833 12.0001 14C12.0001 13.7166 11.9043 13.4791 11.7126 13.2875C11.5209 13.0958 11.2834 13 11.0001 13C10.7168 13 10.4793 13.0958 10.2876 13.2875C10.0959 13.4791 10.0001 13.7166 10.0001 14C10.0001 14.2833 10.0959 14.5208 10.2876 14.7125C10.4793 14.9041 10.7168 15 11.0001 15Z" fill="#282828"/>
</svg>
